# xmcd
#
# Track frame offsets:
#	182
#	12315
#	29575
#	43965
#	55950
#	70675
#	82897
#	97407
#	115750
#	127750
#	141320
#	161057
#	174415
#	188227
#	202540
#
# Disc length: 2952 seconds
#
# Revision: 0
# Processed by: cddbd v1.5.2PL0 Copyright (c) Steve Scherf et al.
# Submitted via: audiograbber 1.83.01
#
DISCID=cb0b860f
DTITLE=Music Maestro - MM6010
DYEAR=1900
DGENRE=
TTITLE0=Garth Brooks - Chris Ledux - What You Gonna Do With A Cowboy
TTITLE1=Martina McBride - That's Me
TTITLE2=Alabama - Take A Little Trip
TTITLE3=Travis Tritt - Here's A Quarter
TTITLE4=Geroge Strait - So Much Like My Dad
TTITLE5=Trisha Yearwood - That's What I Like About You
TTITLE6=Tanya Tucker - If Your Heart Ain't Busy Tonight
TTITLE7=Pam Tillis - Maybe It Was Memphis
TTITLE8=Martina McBride - The Time Has Come
TTITLE9=Holly Dunn - As Long As You Belong To Me
TTITLE10=Reba McEntire - Night The Lights Went Out In Georgia
TTITLE11=Suzy Bogoss - Outbound Plane
TTITLE12=Highway 101 - Honky Tonk Baby
TTITLE13=WYNO - Little Bit of Love
TTITLE14=Rick Van Shelton - Keep It Between The Lines
EXTD=
EXTT0=
EXTT1=
EXTT2=
EXTT3=
EXTT4=
EXTT5=
EXTT6=
EXTT7=
EXTT8=
EXTT9=
EXTT10=
EXTT11=
EXTT12=
EXTT13=
EXTT14=
PLAYORDER=
